<svg xmlns="http://www.w3.org/2000/svg" viewBox="0 0 16 16"><style>.icon-canvas-transparent{opacity:0;fill:#434343}.icon-vs-out{fill:#434343}.icon-vs-bg{fill:#f5f5f5}.icon-vs-fg{fill:#403F41}</style><path class="icon-canvas-transparent" d="M16 16H0V0h16v16z" id="canvas"/><path class="icon-vs-out" d="M0 0v13h3v3h1.443l3.6-3H16V0H0z" id="outline"/><path class="icon-vs-fg" d="M2 2v9h3v1.933L7.319 11H14V2H2zm7 8H7V8h2v2zm0-3H7V3h2v4z" id="iconFg"/><g id="iconBg"><path class="icon-vs-bg" d="M4 15.067V12H1V1h14v11H7.681L4 15.067zM2 11h3v1.933L7.319 11H14V2H2v9zm7-8H7v4h2V3zm0 5H7v2h2V8z"/></g></svg>