<svg xmlns="http://www.w3.org/2000/svg" viewBox="0 0 16 16"><style>.icon-canvas-transparent{opacity:0;fill:#434343}.icon-vs-out{fill:#434343}.icon-vs-bg{fill:#f5f5f5}.icon-vs-fg{fill:#403F41}.icon-vs-action-blue{fill:#00539c}</style><path class="icon-canvas-transparent" d="M16 16H0V0h16v16z" id="canvas"/><path class="icon-vs-out" d="M0 16V5h4V0h12v11h-4v5H0z" id="outline"/><path class="icon-vs-fg" d="M10 11v3H2V7h3v4h5zM6 2v3h5v4h3V2H6z" id="iconFg"/><g id="iconBg"><path class="icon-vs-action-blue" d="M5 5h6v6H5z"/><path class="icon-vs-bg" d="M10 11h1v4H1V6h4v1H2v7h8v-3zM5 1v4h1V2h8v7h-3v1h4V1H5z"/></g></svg>