<svg xmlns="http://www.w3.org/2000/svg" viewBox="0 0 16 16"><style>.icon-canvas-transparent{opacity:0;fill:#434343}.icon-vs-out{fill:#434343}.icon-vs-bg{fill:#f5f5f5}.icon-vs-fg{fill:#403F41}.icon-vs-action-blue{fill:#00539c}</style><path class="icon-canvas-transparent" d="M16 16H0V0h16v16z" id="canvas"/><path class="icon-vs-out" d="M12 10H9v3H0V5h3V2h9v8z" id="outline"/><path class="icon-vs-fg" d="M10 4v4H8V6H5V4h5zm-8 7V7h2v2h3v2H2z" id="iconFg"/><g id="iconBg"><path class="icon-vs-bg" d="M1 6h3v.999H2V11h5V9h1v3H1V6zm3-3v3h1V3.999h5V8H8v1h3V3H4z"/><path class="icon-vs-action-blue" d="M8 9H4V6h4v3z"/></g></svg>